<svg width="20" height="20" viewBox="0 0 20 20" fill="none" xmlns="http://www.w3.org/2000/svg">
<path d="M15 1.66663V3.33329M5 1.66663V3.33329" stroke="#475467" stroke-width="1.25" stroke-linecap="round" stroke-linejoin="round"/>
<path d="M9.99621 10.8334H10.0037M9.99621 14.1667H10.0037M13.3258 10.8334H13.3333M6.66663 10.8334H6.6741M6.66663 14.1667H6.6741" stroke="#475467" stroke-width="1.66667" stroke-linecap="round" stroke-linejoin="round"/>
<path d="M2.91663 6.66663L17.0833 6.66663" stroke="#475467" stroke-width="1.25" stroke-linecap="round" stroke-linejoin="round"/>
<path d="M2.08337 10.2027C2.08337 6.57162 2.08337 4.75607 3.12681 3.62803C4.17024 2.5 5.84962 2.5 9.20837 2.5H10.7917C14.1505 2.5 15.8299 2.5 16.8733 3.62803C17.9167 4.75607 17.9167 6.57162 17.9167 10.2027V10.6307C17.9167 14.2617 17.9167 16.0773 16.8733 17.2053C15.8299 18.3333 14.1505 18.3333 10.7917 18.3333H9.20837C5.84962 18.3333 4.17024 18.3333 3.12681 17.2053C2.08337 16.0773 2.08337 14.2617 2.08337 10.6307V10.2027Z" stroke="#475467" stroke-width="1.25" stroke-linecap="round" stroke-linejoin="round"/>
<path d="M2.5 6.66663L17.5 6.66663" stroke="#475467" stroke-width="1.25" stroke-linecap="round" stroke-linejoin="round"/>
</svg>
