<svg xmlns="http://www.w3.org/2000/svg" viewBox="0 0 120 120" id="Checklist-Pen--Streamline-Ultimate" height="120" width="120"><desc>Checklist Pen Streamline Icon: https://streamlinehq.com</desc><g><path d="M40 37.05a3.85 3.85 0 0 0 -5.300000000000001 0.6l-7.5 9.25 -4.55 -4.55a3.75 3.75 0 1 0 -5.300000000000001 5.300000000000001L25 55a3.85 3.85 0 0 0 5.45 0l10 -12.5A3.85 3.85 0 0 0 40 37.05Z" fill="#ffffff" stroke-width="5"></path><path d="m34.55 65 -7.35 9.399999999999999 -4.55 -4.4a3.75 3.75 0 1 0 -5.300000000000001 5L25 82.65a3.85 3.85 0 0 0 5.6000000000000005 -0.3l10 -12.5A3.75 3.75 0 0 0 34.55 65Z" fill="#ffffff" stroke-width="5"></path><path d="M102.5 40H85a2.5 2.5 0 0 0 -2.5 2.5V90a7.5 7.5 0 0 0 7.5 7.5h7.5A7.5 7.5 0 0 0 105 90V42.5a2.5 2.5 0 0 0 -2.5 -2.5Z" fill="#ffffff" stroke-width="5"></path><path d="M120 15a15 15 0 0 0 -15 -15h-20a2.5 2.5 0 0 0 -2.5 2.5v30a2.5 2.5 0 0 0 2.5 2.5h17.5a2.5 2.5 0 0 0 2.5 -2.5V10a5 5 0 0 1 5 5v40a5 5 0 0 0 10 0Z" fill="#ffffff" stroke-width="5"></path><path d="M75 15a5 5 0 0 0 -5 -5H5a5 5 0 0 0 -5 5v90a5 5 0 0 0 5 5h65a5 5 0 0 0 0 -10H10V20h60a5 5 0 0 0 5 -5Z" fill="#ffffff" stroke-width="5"></path><path d="M62.5 46.25H50a3.75 3.75 0 0 0 0 7.5h12.5a3.75 3.75 0 0 0 0 -7.5Z" fill="#ffffff" stroke-width="5"></path><path d="M62.5 73.75H50a3.75 3.75 0 0 0 0 7.5h12.5a3.75 3.75 0 0 0 0 -7.5Z" fill="#ffffff" stroke-width="5"></path><path d="M93.75 102.5a5 5 0 0 0 -5 5V115a5 5 0 0 0 10 0v-7.5a5 5 0 0 0 -5 -5Z" fill="#ffffff" stroke-width="5"></path></g></svg>