<svg width="24" height="25" viewBox="0 0 24 25" fill="none" xmlns="http://www.w3.org/2000/svg">
<path d="M2 12.5C2 18.0228 6.47715 22.5 12 22.5C17.5228 22.5 22 18.0228 22 12.5C22 6.97715 17.5228 2.5 12 2.5C7.89936 2.5 4.3752 4.96819 2.83209 8.5M2 5L2.5 9L6.5 8" stroke="#F2F4F7" stroke-width="1.5" stroke-linecap="round" stroke-linejoin="round"/>
<path d="M14.7257 10.5603C14.6268 9.79765 13.7528 8.56543 12.1812 8.5654C10.3551 8.56537 9.58672 9.57867 9.43081 10.0853C9.18758 10.763 9.23622 12.1563 11.3766 12.3082C14.0522 12.4982 15.124 12.8146 14.9877 14.4552C14.8513 16.0957 13.3599 16.4502 12.1812 16.4121C11.0024 16.3742 9.07398 15.8317 8.99915 14.3725M11.9941 6.99921V8.56902M11.9941 16.4023V17.9992" stroke="#F2F4F7" stroke-width="1.5" stroke-linecap="round"/>
</svg>
