<svg width="24" height="25" viewBox="0 0 24 25" fill="none" xmlns="http://www.w3.org/2000/svg">
<path d="M13 11.5L18 6.5" stroke="#F2F4F7" stroke-width="1.5"/>
<path d="M19 7.5L17 5.5L19.5 4L20.5 5L19 7.5Z" stroke="#F2F4F7" stroke-width="1.5" stroke-linejoin="round"/>
<path d="M4.02513 9.47487C3.01416 8.46391 2.75095 6.98836 3.23548 5.73548L4.65748 7.15748H6.65748V5.15748L5.23548 3.73548C6.48836 3.25095 7.96391 3.51416 8.97487 4.52513C9.98621 5.53647 10.2493 7.01274 9.76398 8.26593L16.2341 14.736C17.4873 14.2507 18.9635 14.5138 19.9749 15.5251C20.9858 16.5361 21.2491 18.0116 20.7645 19.2645L19.3425 17.8425H17.3425V19.8425L18.7645 21.2645C17.5116 21.7491 16.0361 21.4858 15.0251 20.4749C14.0145 19.4643 13.7511 17.9895 14.2349 16.7369L7.76312 10.2651C6.51053 10.7489 5.03571 10.4855 4.02513 9.47487Z" stroke="#F2F4F7" stroke-width="1.5" stroke-linejoin="round"/>
<path d="M12.203 15L6.59897 20.6041C6.07115 21.1319 5.2154 21.1319 4.68758 20.6041L3.89586 19.8124C3.36805 19.2846 3.36805 18.4288 3.89586 17.901L9.49994 12.2969" stroke="#F2F4F7" stroke-width="1.5" stroke-linejoin="round"/>
</svg>
