<svg width="24" height="25" viewBox="0 0 24 25" fill="none" xmlns="http://www.w3.org/2000/svg">
<path d="M17.5 5.5C18.3284 5.5 19 6.17157 19 7C19 7.82843 18.3284 8.5 17.5 8.5C16.6716 8.5 16 7.82843 16 7C16 6.17157 16.6716 5.5 17.5 5.5Z" stroke="#F2F4F7" stroke-width="1.5" stroke-linecap="round" stroke-linejoin="round"/>
<path d="M2.77423 11.6439C1.77108 12.7643 1.7495 14.4546 2.67016 15.6437C4.49711 18.0033 6.49674 20.0029 8.85633 21.8298C10.0454 22.7505 11.7357 22.7289 12.8561 21.7258C15.8979 19.0022 18.6835 16.1559 21.3719 13.0279C21.6377 12.7187 21.8039 12.3397 21.8412 11.9336C22.0062 10.138 22.3452 4.96467 20.9403 3.55974C19.5353 2.15481 14.362 2.49377 12.5664 2.65876C12.1603 2.69608 11.7813 2.86233 11.472 3.12811C8.34412 5.81646 5.49781 8.60211 2.77423 11.6439Z" stroke="#F2F4F7" stroke-width="1.5"/>
<path d="M13.7884 12.8665C13.8097 12.4655 13.9222 11.7319 13.3125 11.1744M13.3125 11.1744C13.1238 11.0019 12.866 10.8462 12.5149 10.7224C11.2583 10.2796 9.71484 11.7619 10.8067 13.1188C11.3936 13.8481 11.8461 14.0725 11.8035 14.9007C11.7735 15.4834 11.2012 16.0921 10.4469 16.324C9.7916 16.5254 9.06876 16.2587 8.61156 15.7478C8.05332 15.1241 8.1097 14.536 8.10492 14.2797M13.3125 11.1744L14.0006 10.4863M8.66131 15.8256L8.00781 16.4791" stroke="#F2F4F7" stroke-width="1.5" stroke-linecap="round" stroke-linejoin="round"/>
</svg>
